<svg xmlns="http://www.w3.org/2000/svg" viewBox="744.003 932.766 131 104"><path d="M759.537 953.982a5.076 5.076 0 0 0-1.651-4.28l-12.232-14.735v-2.201h37.979l29.356 64.381 25.808-64.381h36.206v2.201l-10.458 10.027a3.056 3.056 0 0 0-1.162 2.935v73.675a3.054 3.054 0 0 0 1.162 2.934l10.213 10.027v2.201h-51.372v-2.201l10.58-10.271c1.04-1.04 1.04-1.345 1.04-2.935v-59.551l-29.417 74.714h-3.975l-34.249-74.714v50.074a6.91 6.91 0 0 0 1.896 5.747l13.761 16.692v2.201h-39.019v-2.201l13.76-16.692a6.662 6.662 0 0 0 1.774-5.747v-57.9z" fill="#666"/></svg>