<svg xmlns="http://www.w3.org/2000/svg" viewBox="696.069 612.089 463.499 443.035"><path d="M801.288 1055.115V756.187h-99.359v298.928h99.368-.009zm-49.662-339.734c34.642 0 56.208-22.956 56.208-51.642-.651-29.337-21.566-51.65-55.548-51.65-34.008 0-56.217 22.313-56.217 51.65 0 28.686 21.557 51.642 54.906 51.642h.651zm104.655 339.734h99.351V888.2c0-8.925.651-17.868 3.273-24.241 7.18-17.859 23.528-36.344 50.982-36.344 35.944 0 50.33 27.41 50.33 67.6v159.9h99.351V883.72c0-91.814-49.011-134.539-114.38-134.539-53.595 0-77.132 29.953-90.208 50.356h.66v-43.341h-99.35c1.293 28.043-.009 298.928-.009 298.928v-.009z" fill="#666"/></svg>